<svg width="560" height="360" viewBox="0 0 560 360" xmlns="http://www.w3.org/2000/svg">
  <defs>
    <radialGradient id="grad4" cx="20%" cy="20%" r="120%">
      <stop offset="0%" stop-color="#f472b6" stop-opacity="0.85" />
      <stop offset="100%" stop-color="#0f172a" />
    </radialGradient>
    <linearGradient id="bars" x1="0%" y1="0%" x2="0%" y2="100%">
      <stop offset="0%" stop-color="#fbcfe8" stop-opacity="0.9" />
      <stop offset="100%" stop-color="#f472b6" stop-opacity="0.4" />
    </linearGradient>
  </defs>
  <rect width="560" height="360" rx="28" fill="#111827" />
  <rect x="36" y="48" width="488" height="264" rx="26" fill="url(#grad4)" />
  <g transform="translate(120 116)">
    <rect x="0" y="0" width="24" height="128" rx="12" fill="url(#bars)" />
    <rect x="44" y="24" width="24" height="152" rx="12" fill="url(#bars)" />
    <rect x="88" y="52" width="24" height="124" rx="12" fill="url(#bars)" />
    <rect x="132" y="8" width="24" height="168" rx="12" fill="url(#bars)" />
    <rect x="176" y="36" width="24" height="140" rx="12" fill="url(#bars)" />
  </g>
  <rect x="308" y="120" width="136" height="18" rx="9" fill="#fbcfe8" fill-opacity="0.75" />
  <rect x="308" y="150" width="112" height="12" rx="6" fill="#fbcfe8" fill-opacity="0.5" />
  <rect x="308" y="170" width="144" height="12" rx="6" fill="#fbcfe8" fill-opacity="0.5" />
  <text x="300" y="244" fill="#fbcfe8" fill-opacity="0.7" font-family="Inter, Arial, sans-serif" font-size="20">
    operational insights
  </text>
</svg>
