<svg width="560" height="360" viewBox="0 0 560 360" xmlns="http://www.w3.org/2000/svg">
  <defs>
    <linearGradient id="grad5" x1="0%" y1="100%" x2="100%" y2="0%">
      <stop offset="0%" stop-color="#22d3ee" stop-opacity="0.8" />
      <stop offset="100%" stop-color="#2dd4bf" stop-opacity="0.6" />
    </linearGradient>
    <linearGradient id="terminal" x1="0%" y1="0%" x2="0%" y2="100%">
      <stop offset="0%" stop-color="#0f172a" />
      <stop offset="100%" stop-color="#020617" />
    </linearGradient>
  </defs>
  <rect width="560" height="360" rx="28" fill="#0b1120" />
  <rect x="48" y="52" width="464" height="256" rx="24" fill="url(#terminal)" />
  <rect x="72" y="80" width="200" height="12" rx="6" fill="#1f2937" />
  <circle cx="92" cy="68" r="7" fill="#f87171" />
  <circle cx="114" cy="68" r="7" fill="#fbbf24" />
  <circle cx="136" cy="68" r="7" fill="#34d399" />
  <g font-family="Fira Code, Consolas, monospace" font-size="16" fill="#67e8f9">
    <text x="96" y="124">$ setup ai-assistant</text>
    <text x="96" y="152">→ installing models...</text>
    <text x="96" y="180" fill="#a5f3fc">✓ environment ready</text>
    <text x="96" y="208">> start pairing session</text>
  </g>
  <path d="M340 244C352 196 404 168 452 182C424 206 408 240 417 276C384 276 359 263 340 244Z" fill="url(#grad5)" fill-opacity="0.6" />
  <text x="260" y="304" fill="#14b8a6" fill-opacity="0.7" font-family="Inter, Arial, sans-serif" font-size="20">
    ai-powered workflows
  </text>
</svg>
